<svg width="25" height="25" viewBox="0 0 25 25" fill="none" xmlns="http://www.w3.org/2000/svg">
<mask id="mask0_1_1010" style="mask-type:alpha" maskUnits="userSpaceOnUse" x="2" y="1" width="22" height="23">
<rect x="2.3037" y="1.88098" width="21.1963" height="21.1963" fill="#D9D9D9"/>
</mask>
<g mask="url(#mask0_1_1010)">
<path d="M3.49999 22.5V5.4C3.49999 4.8775 3.68619 4.43005 4.05859 4.05765C4.43036 3.68588 4.87749 3.5 5.39999 3.5H20.6C21.1225 3.5 21.5699 3.68588 21.9423 4.05765C22.3141 4.43005 22.5 4.8775 22.5 5.4V16.8C22.5 17.3225 22.3141 17.7699 21.9423 18.1424C21.5699 18.5141 21.1225 18.7 20.6 18.7H7.29999L3.49999 22.5ZM5.39999 17.9162L6.51624 16.8H20.6V5.4H5.39999V17.9162Z" fill="white" fill-opacity="0.9"/>
</g>
</svg>
