<svg width="25" height="25" viewBox="0 0 25 25" fill="none" xmlns="http://www.w3.org/2000/svg">
<path d="M20.824 12.158C21.176 12.4177 21.5 12.6752 21.5 13.5809C21.5 14.4887 21.042 14.856 20.552 15.1114C20.7523 15.4561 20.8163 15.8701 20.73 16.2641C20.576 16.9903 19.946 17.554 19.386 17.7208C19.628 18.1303 19.704 18.5336 19.416 19.0297C19.046 19.6524 18.724 19.8889 17.3 19.8889H11.5C9.52403 19.8889 8.50003 18.7362 8.50003 17.7778V12.8483C8.50003 10.2517 11.434 8.04556 11.434 6.24056L11.222 3.99222C11.212 3.855 11.238 3.51933 11.338 3.42222C11.498 3.25544 11.94 3 12.608 3C13.044 3 13.334 3.08656 13.676 3.25967C14.838 3.84444 15.14 5.32433 15.14 6.515C15.14 7.08711 14.312 8.80133 14.2 9.39456C14.2 9.39456 15.934 8.98922 17.958 8.97444C20.08 8.96178 21.456 9.37556 21.456 10.752C21.456 11.303 21.018 11.8561 20.824 12.158ZM3.70003 11.4444H5.30003C5.61829 11.4444 5.92351 11.5779 6.14856 11.8154C6.3736 12.053 6.50003 12.3752 6.50003 12.7111V20.7333C6.50003 21.0693 6.3736 21.3915 6.14856 21.629C5.92351 21.8665 5.61829 22 5.30003 22H3.70003C3.38177 22 3.07655 21.8665 2.8515 21.629C2.62646 21.3915 2.50003 21.0693 2.50003 20.7333V12.7111C2.50003 12.3752 2.62646 12.053 2.8515 11.8154C3.07655 11.5779 3.38177 11.4444 3.70003 11.4444Z" fill="white"/>
</svg>
