<svg width="25" height="25" viewBox="0 0 25 25" fill="none" xmlns="http://www.w3.org/2000/svg">
<path d="M3.22897 20.5C3.15222 20.5004 3.07593 20.4887 3.0032 20.4653C2.8511 20.4183 2.71948 20.325 2.62866 20.1997C2.53784 20.0744 2.49287 19.9241 2.50069 19.7721C2.50069 19.6681 3.25081 9.60266 13.8545 8.8124V5.19382C13.8544 5.056 13.8974 4.92127 13.9781 4.80685C14.0588 4.69242 14.1735 4.60349 14.3076 4.5514C14.4417 4.49932 14.589 4.48646 14.7307 4.51445C14.8725 4.54245 15.0023 4.61003 15.1035 4.70857L22.2916 11.6962C22.4251 11.8258 22.4998 12 22.4998 12.1814C22.4998 12.3629 22.4251 12.5371 22.2916 12.6667L15.1035 19.6543C15.0023 19.7528 14.8725 19.8204 14.7307 19.8484C14.589 19.8764 14.4417 19.8635 14.3076 19.8114C14.1735 19.7594 14.0588 19.6704 13.9781 19.556C13.8974 19.4416 13.8544 19.3068 13.8545 19.169V15.6198C6.77568 15.8763 3.87349 20.1257 3.84436 20.1776C3.77866 20.2764 3.68778 20.3577 3.58019 20.4141C3.47259 20.4705 3.35177 20.5 3.22897 20.5ZM15.3111 6.8922V9.46055C15.3112 9.64028 15.238 9.81302 15.1069 9.94235C14.9758 10.0717 14.797 10.1475 14.6083 10.1538C7.74793 10.3929 5.29363 14.7428 4.41242 17.54C6.23311 16.0426 9.47759 14.2125 14.5391 14.2125H14.5719C14.765 14.2125 14.9503 14.2856 15.0869 14.4156C15.2234 14.5456 15.3002 14.7219 15.3002 14.9058V17.4741L20.7622 12.1849L15.3111 6.8922Z" fill="white" fill-opacity="0.9"/>
</svg>
