<svg width="48" height="48" viewBox="0 0 48 48" fill="none" xmlns="http://www.w3.org/2000/svg">
<path d="M34.9804 22.412C34.9804 22.412 34.9785 22.4102 34.9766 22.4083L24.9536 13.7271C24.6983 13.4838 24.364 13.3464 23.9898 13.3408C23.636 13.3464 23.3017 13.4838 23.0724 13.7039L13.0196 22.412C12.6306 22.7537 12.5126 23.2988 12.7346 23.7761C12.9305 24.1995 13.3836 24.4447 13.8498 24.4447H15.6429V33.034C15.6429 33.931 16.3709 34.659 17.2679 34.659H21.2143C21.7269 34.659 22.1429 34.243 22.1429 33.7304V28.0011C22.1429 27.8312 22.2803 27.6947 22.4493 27.6947H25.5507C25.7197 27.6947 25.8571 27.8312 25.8571 28.0011V33.7304C25.8571 34.243 26.2731 34.659 26.7857 34.659H30.7321C31.6301 34.659 32.3571 33.931 32.3571 33.034V24.4447H34.1502C34.6164 24.4447 35.0695 24.1995 35.2654 23.7761C35.4874 23.2988 35.3694 22.7537 34.9804 22.412Z" fill="white"/>
</svg>
