<svg width="48" height="48" viewBox="0 0 48 48" fill="none" xmlns="http://www.w3.org/2000/svg">
<rect width="48" height="48" rx="24" fill="#308AFF"/>
<path d="M24 15.4561C28.8286 15.4561 32.5714 18.9868 32.5714 23.7554C32.5714 28.5239 28.8286 32.0547 24 32.0547C23.1618 32.0566 22.3272 31.9461 21.5186 31.726C21.3667 31.6841 21.2049 31.6959 21.0607 31.7595L19.3571 32.5088C19.2543 32.5541 19.142 32.5734 19.0299 32.5652C18.9179 32.5569 18.8096 32.5214 18.7146 32.4616C18.6195 32.4018 18.5406 32.3197 18.4847 32.2224C18.4289 32.1251 18.3978 32.0156 18.3943 31.9035L18.3479 30.382C18.3447 30.2893 18.3227 30.1983 18.2831 30.1145C18.2436 30.0306 18.1874 29.9557 18.1179 29.8943C17.2579 29.1209 16.5731 28.1732 16.1093 27.1146C15.6456 26.0559 15.4135 24.9107 15.4286 23.7554C15.4286 18.9868 19.1714 15.4561 24 15.4561ZM18.8529 26.1824C18.8019 26.263 18.7809 26.3588 18.7936 26.4532C18.8062 26.5476 18.8517 26.6346 18.922 26.699C18.9924 26.7633 19.0831 26.801 19.1785 26.8053C19.2738 26.8097 19.3676 26.7805 19.4436 26.7229L22.1479 24.6737C22.2372 24.6066 22.346 24.5703 22.4579 24.5703C22.5697 24.5703 22.6785 24.6066 22.7679 24.6737L24.7679 26.171C24.9099 26.277 25.0725 26.3526 25.2452 26.3928C25.4179 26.4331 25.5972 26.4373 25.7716 26.4051C25.946 26.3729 26.1119 26.305 26.2588 26.2057C26.4056 26.1064 26.5303 25.9778 26.625 25.828L29.1429 21.841C29.1938 21.7604 29.2148 21.6646 29.2021 21.5702C29.1895 21.4758 29.144 21.3888 29.0737 21.3244C29.0033 21.2601 28.9126 21.2224 28.8173 21.218C28.7219 21.2137 28.6281 21.2429 28.5521 21.3005L25.8479 23.3497C25.7585 23.4168 25.6497 23.453 25.5379 23.453C25.426 23.453 25.3172 23.4168 25.2279 23.3497L23.2279 21.8524C23.0858 21.7463 22.9233 21.6708 22.7505 21.6305C22.5778 21.5902 22.3986 21.5861 22.2241 21.6183C22.0497 21.6505 21.8838 21.7184 21.737 21.8177C21.5901 21.917 21.4654 22.0456 21.3707 22.1953L18.8529 26.1824Z" fill="white"/>
</svg>
