<svg width="48" height="48" viewBox="0 0 48 48" fill="none" xmlns="http://www.w3.org/2000/svg">
<rect width="48" height="48" rx="24" fill="#308AFF"/>
<path d="M17.28 34C19.0031 34 20.4 32.6031 20.4 30.88C20.4 29.1569 19.0031 27.76 17.28 27.76C15.5569 27.76 14.16 29.1569 14.16 30.88C14.16 32.6031 15.5569 34 17.28 34Z" stroke="white" stroke-width="1.5" stroke-linecap="round" stroke-linejoin="round"/>
<path d="M31.84 19.9601V16.6001C31.84 14.0001 30.21 13.6401 28.56 14.0901L22.32 15.7901C21.18 16.1001 20.4 17.0001 20.4 18.3001V20.4701V21.9301V30.8701" stroke="white" stroke-width="1.5" stroke-linecap="round" stroke-linejoin="round"/>
<path d="M31.84 28.8V24" stroke="white" stroke-width="1.5" stroke-linecap="round" stroke-linejoin="round"/>
<path d="M28.72 31.9199C30.4431 31.9199 31.84 30.5231 31.84 28.7999C31.84 27.0768 30.4431 25.6799 28.72 25.6799C26.9969 25.6799 25.6 27.0768 25.6 28.7999C25.6 30.5231 26.9969 31.9199 28.72 31.9199Z" stroke="white" stroke-width="1.5" stroke-linecap="round" stroke-linejoin="round"/>
<path d="M20.4 21.5199L31.84 18.3999" stroke="white" stroke-width="1.5" stroke-linecap="round" stroke-linejoin="round"/>
</svg>
