<svg width="48" height="48" viewBox="0 0 48 48" fill="none" xmlns="http://www.w3.org/2000/svg">
<rect width="48" height="48" rx="24" fill="#308AFF"/>
<path d="M23.2812 33.0234C23.0781 33.0234 22.9062 32.9661 22.7656 32.8516C22.625 32.7422 22.5312 32.5859 22.4844 32.3828L22.0781 30.6641C21.9271 30.612 21.7786 30.5573 21.6328 30.5C21.487 30.4427 21.349 30.3828 21.2188 30.3203L19.7188 31.2422C19.5469 31.3464 19.3698 31.3906 19.1875 31.375C19.0104 31.3594 18.8516 31.2812 18.7109 31.1406L17.7109 30.1406C17.5703 30 17.4896 29.8359 17.4688 29.6484C17.4531 29.4609 17.5026 29.2839 17.6172 29.1172L18.5312 27.625C18.4688 27.4896 18.4089 27.3516 18.3516 27.2109C18.2943 27.0703 18.2448 26.9297 18.2031 26.7891L16.4688 26.375C16.2656 26.3333 16.1094 26.2422 16 26.1016C15.8906 25.9609 15.8359 25.7891 15.8359 25.5859V24.1719C15.8359 23.974 15.8906 23.8047 16 23.6641C16.1094 23.5234 16.2656 23.4323 16.4688 23.3906L18.1875 22.9766C18.2344 22.8151 18.2865 22.6641 18.3438 22.5234C18.4062 22.3828 18.4635 22.25 18.5156 22.125L17.6016 20.6094C17.487 20.4427 17.4375 20.2708 17.4531 20.0938C17.4688 19.9115 17.5495 19.75 17.6953 19.6094L18.7109 18.6016C18.8568 18.4661 19.013 18.388 19.1797 18.3672C19.3516 18.3464 19.5234 18.3854 19.6953 18.4844L21.2109 19.4219C21.3411 19.3542 21.4792 19.2917 21.625 19.2344C21.776 19.1719 21.9271 19.1146 22.0781 19.0625L22.4844 17.3359C22.5312 17.138 22.625 16.9818 22.7656 16.8672C22.9062 16.7526 23.0781 16.6953 23.2812 16.6953H24.7188C24.9219 16.6953 25.0938 16.7526 25.2344 16.8672C25.375 16.9818 25.4661 17.138 25.5078 17.3359L25.9141 19.0781C26.0755 19.1302 26.2266 19.1849 26.3672 19.2422C26.513 19.2995 26.6484 19.362 26.7734 19.4297L28.3047 18.4844C28.4766 18.3854 28.6458 18.349 28.8125 18.375C28.9792 18.3958 29.1354 18.4714 29.2812 18.6016L30.3047 19.6094C30.4505 19.75 30.5286 19.9115 30.5391 20.0938C30.5547 20.2708 30.5078 20.4427 30.3984 20.6094L29.4766 22.125C29.5286 22.25 29.5833 22.3828 29.6406 22.5234C29.7031 22.6641 29.7604 22.8151 29.8125 22.9766L31.5312 23.3906C31.7292 23.4323 31.8828 23.5234 31.9922 23.6641C32.1068 23.8047 32.1641 23.974 32.1641 24.1719V25.5859C32.1641 25.7891 32.1068 25.9609 31.9922 26.1016C31.8828 26.2422 31.7292 26.3333 31.5312 26.375L29.7969 26.7891C29.75 26.9297 29.6979 27.0703 29.6406 27.2109C29.5885 27.3516 29.5286 27.4896 29.4609 27.625L30.3828 29.1172C30.4974 29.2839 30.5443 29.4609 30.5234 29.6484C30.5078 29.8359 30.4297 30 30.2891 30.1406L29.2812 31.1406C29.1406 31.2812 28.9792 31.3594 28.7969 31.375C28.6198 31.3906 28.4479 31.3464 28.2812 31.2422L26.7734 30.3203C26.6432 30.3828 26.5052 30.4427 26.3594 30.5C26.2135 30.5573 26.0651 30.612 25.9141 30.6641L25.5078 32.3828C25.4661 32.5859 25.375 32.7422 25.2344 32.8516C25.0938 32.9661 24.9219 33.0234 24.7188 33.0234H23.2812ZM24 27.6172C24.5052 27.6172 24.9661 27.4922 25.3828 27.2422C25.8047 26.9922 26.138 26.6589 26.3828 26.2422C26.6328 25.8203 26.7578 25.3568 26.7578 24.8516C26.7578 24.3464 26.6328 23.888 26.3828 23.4766C26.138 23.0599 25.8047 22.7266 25.3828 22.4766C24.9661 22.2266 24.5052 22.1016 24 22.1016C23.4948 22.1016 23.0339 22.2266 22.6172 22.4766C22.2005 22.7266 21.8672 23.0599 21.6172 23.4766C21.3672 23.888 21.2422 24.3464 21.2422 24.8516C21.2422 25.3568 21.3646 25.8203 21.6094 26.2422C21.8594 26.6589 22.1927 26.9922 22.6094 27.2422C23.0312 27.4922 23.4948 27.6172 24 27.6172Z" fill="white"/>
</svg>
