<svg width="48" height="48" viewBox="0 0 48 48" fill="none" xmlns="http://www.w3.org/2000/svg">
<g clip-path="url(#clip0_1_1085)">
<path d="M23.2812 32.5234C23.0781 32.5234 22.9062 32.4661 22.7656 32.3516C22.625 32.2422 22.5312 32.0859 22.4844 31.8828L22.0781 30.1641C21.9271 30.112 21.7786 30.0573 21.6328 30C21.487 29.9427 21.349 29.8828 21.2188 29.8203L19.7188 30.7422C19.5469 30.8464 19.3698 30.8906 19.1875 30.875C19.0104 30.8594 18.8516 30.7812 18.7109 30.6406L17.7109 29.6406C17.5703 29.5 17.4896 29.3359 17.4688 29.1484C17.4531 28.9609 17.5026 28.7839 17.6172 28.6172L18.5312 27.125C18.4688 26.9896 18.4089 26.8516 18.3516 26.7109C18.2943 26.5703 18.2448 26.4297 18.2031 26.2891L16.4688 25.875C16.2656 25.8333 16.1094 25.7422 16 25.6016C15.8906 25.4609 15.8359 25.2891 15.8359 25.0859V23.6719C15.8359 23.474 15.8906 23.3047 16 23.1641C16.1094 23.0234 16.2656 22.9323 16.4688 22.8906L18.1875 22.4766C18.2344 22.3151 18.2865 22.1641 18.3438 22.0234C18.4062 21.8828 18.4635 21.75 18.5156 21.625L17.6016 20.1094C17.487 19.9427 17.4375 19.7708 17.4531 19.5938C17.4688 19.4115 17.5495 19.25 17.6953 19.1094L18.7109 18.1016C18.8568 17.9661 19.013 17.888 19.1797 17.8672C19.3516 17.8464 19.5234 17.8854 19.6953 17.9844L21.2109 18.9219C21.3411 18.8542 21.4792 18.7917 21.625 18.7344C21.776 18.6719 21.9271 18.6146 22.0781 18.5625L22.4844 16.8359C22.5312 16.638 22.625 16.4818 22.7656 16.3672C22.9062 16.2526 23.0781 16.1953 23.2812 16.1953H24.7188C24.9219 16.1953 25.0938 16.2526 25.2344 16.3672C25.375 16.4818 25.4661 16.638 25.5078 16.8359L25.9141 18.5781C26.0755 18.6302 26.2266 18.6849 26.3672 18.7422C26.513 18.7995 26.6484 18.862 26.7734 18.9297L28.3047 17.9844C28.4766 17.8854 28.6458 17.849 28.8125 17.875C28.9792 17.8958 29.1354 17.9714 29.2812 18.1016L30.3047 19.1094C30.4505 19.25 30.5286 19.4115 30.5391 19.5938C30.5547 19.7708 30.5078 19.9427 30.3984 20.1094L29.4766 21.625C29.5286 21.75 29.5833 21.8828 29.6406 22.0234C29.7031 22.1641 29.7604 22.3151 29.8125 22.4766L31.5312 22.8906C31.7292 22.9323 31.8828 23.0234 31.9922 23.1641C32.1068 23.3047 32.1641 23.474 32.1641 23.6719V25.0859C32.1641 25.2891 32.1068 25.4609 31.9922 25.6016C31.8828 25.7422 31.7292 25.8333 31.5312 25.875L29.7969 26.2891C29.75 26.4297 29.6979 26.5703 29.6406 26.7109C29.5885 26.8516 29.5286 26.9896 29.4609 27.125L30.3828 28.6172C30.4974 28.7839 30.5443 28.9609 30.5234 29.1484C30.5078 29.3359 30.4297 29.5 30.2891 29.6406L29.2812 30.6406C29.1406 30.7812 28.9792 30.8594 28.7969 30.875C28.6198 30.8906 28.4479 30.8464 28.2812 30.7422L26.7734 29.8203C26.6432 29.8828 26.5052 29.9427 26.3594 30C26.2135 30.0573 26.0651 30.112 25.9141 30.1641L25.5078 31.8828C25.4661 32.0859 25.375 32.2422 25.2344 32.3516C25.0938 32.4661 24.9219 32.5234 24.7188 32.5234H23.2812ZM24 27.1172C24.5052 27.1172 24.9661 26.9922 25.3828 26.7422C25.8047 26.4922 26.138 26.1589 26.3828 25.7422C26.6328 25.3203 26.7578 24.8568 26.7578 24.3516C26.7578 23.8464 26.6328 23.388 26.3828 22.9766C26.138 22.5599 25.8047 22.2266 25.3828 21.9766C24.9661 21.7266 24.5052 21.6016 24 21.6016C23.4948 21.6016 23.0339 21.7266 22.6172 21.9766C22.2005 22.2266 21.8672 22.5599 21.6172 22.9766C21.3672 23.388 21.2422 23.8464 21.2422 24.3516C21.2422 24.8568 21.3646 25.3203 21.6094 25.7422C21.8594 26.1589 22.1927 26.4922 22.6094 26.7422C23.0312 26.9922 23.4948 27.1172 24 27.1172Z" fill="white"/>
</g>
<defs>
<clipPath id="clip0_1_1085">
<rect width="26" height="26" fill="white" transform="translate(11 11)"/>
</clipPath>
</defs>
</svg>
