<svg width="20" height="21" viewBox="0 0 20 21" fill="none" xmlns="http://www.w3.org/2000/svg">
<g clip-path="url(#clip0_1_884)">
<path d="M3.1818 6.88026C4.68803 6.88026 5.90907 5.66142 5.90907 4.15791C5.90907 2.65439 4.68803 1.43555 3.1818 1.43555C1.67557 1.43555 0.454529 2.65439 0.454529 4.15791C0.454529 5.66142 1.67557 6.88026 3.1818 6.88026Z" fill="white"/>
<path d="M9.99998 6.88026C11.5062 6.88026 12.7273 5.66142 12.7273 4.15791C12.7273 2.65439 11.5062 1.43555 9.99998 1.43555C8.49375 1.43555 7.27271 2.65439 7.27271 4.15791C7.27271 5.66142 8.49375 6.88026 9.99998 6.88026Z" fill="white"/>
<path d="M16.8182 6.88026C18.3244 6.88026 19.5454 5.66142 19.5454 4.15791C19.5454 2.65439 18.3244 1.43555 16.8182 1.43555C15.3119 1.43555 14.0909 2.65439 14.0909 4.15791C14.0909 5.66142 15.3119 6.88026 16.8182 6.88026Z" fill="white"/>
<path d="M3.1818 13.6862C4.68803 13.6862 5.90907 12.4673 5.90907 10.9638C5.90907 9.4603 4.68803 8.24146 3.1818 8.24146C1.67557 8.24146 0.454529 9.4603 0.454529 10.9638C0.454529 12.4673 1.67557 13.6862 3.1818 13.6862Z" fill="white"/>
<path d="M9.99998 13.6862C11.5062 13.6862 12.7273 12.4673 12.7273 10.9638C12.7273 9.4603 11.5062 8.24146 9.99998 8.24146C8.49375 8.24146 7.27271 9.4603 7.27271 10.9638C7.27271 12.4673 8.49375 13.6862 9.99998 13.6862Z" fill="white"/>
<path d="M16.8182 13.6862C18.3244 13.6862 19.5454 12.4673 19.5454 10.9638C19.5454 9.4603 18.3244 8.24146 16.8182 8.24146C15.3119 8.24146 14.0909 9.4603 14.0909 10.9638C14.0909 12.4673 15.3119 13.6862 16.8182 13.6862Z" fill="white"/>
<path d="M3.1818 20.4921C4.68803 20.4921 5.90907 19.2732 5.90907 17.7697C5.90907 16.2662 4.68803 15.0474 3.1818 15.0474C1.67557 15.0474 0.454529 16.2662 0.454529 17.7697C0.454529 19.2732 1.67557 20.4921 3.1818 20.4921Z" fill="white"/>
<path d="M9.99998 20.4921C11.5062 20.4921 12.7273 19.2732 12.7273 17.7697C12.7273 16.2662 11.5062 15.0474 9.99998 15.0474C8.49375 15.0474 7.27271 16.2662 7.27271 17.7697C7.27271 19.2732 8.49375 20.4921 9.99998 20.4921Z" fill="white"/>
<path d="M16.8182 20.4921C18.3244 20.4921 19.5454 19.2732 19.5454 17.7697C19.5454 16.2662 18.3244 15.0474 16.8182 15.0474C15.3119 15.0474 14.0909 16.2662 14.0909 17.7697C14.0909 19.2732 15.3119 20.4921 16.8182 20.4921Z" fill="white"/>
</g>
<defs>
<clipPath id="clip0_1_884">
<rect width="20" height="19.964" fill="white" transform="translate(0 0.981812)"/>
</clipPath>
</defs>
</svg>
