<svg width="21" height="21" viewBox="0 0 21 21" fill="none" xmlns="http://www.w3.org/2000/svg">
<path d="M6.57689 17.7288C7.54657 17.7288 9.14083 17.6397 11.2969 17.2425C10.924 18.2564 9.95222 18.983 8.81071 18.983C7.86171 18.983 7.03036 18.4803 6.5612 17.7288H6.57689ZM18.7521 12.1974C18.9282 13.1043 18.2922 13.9064 16.8605 14.5831C16.0762 14.9531 14.3322 15.6575 11.4517 16.218C9.22996 16.6493 7.60218 16.7484 6.5776 16.7484C6.27315 16.7484 6.02146 16.7399 5.82325 16.7285C4.24324 16.6379 3.35199 16.1317 3.17588 15.2248C2.90851 13.8508 3.33132 13.3203 4.0322 12.4419L4.21686 12.2102C4.68958 11.6106 4.87425 11.0216 4.57194 9.46801C3.8953 5.98857 5.46247 3.61072 8.87061 2.94478C12.2802 2.28668 14.6245 3.90234 15.3011 7.38248C15.6027 8.93611 15.9949 9.41239 16.658 9.79099V9.79171L16.9161 9.93787C17.8943 10.4897 18.4847 10.8227 18.7521 12.1974Z" fill="white"/>
</svg>
