<svg width="32" height="32" viewBox="0 0 32 32" fill="none" xmlns="http://www.w3.org/2000/svg">
<path d="M13.8672 15.3906C13.8672 14.5312 14.0286 13.7266 14.3516 12.9766C14.6745 12.2214 15.1224 11.5573 15.6953 10.9844C16.2682 10.4115 16.9297 9.96354 17.6797 9.64062C18.4349 9.31771 19.2422 9.15625 20.1016 9.15625C20.9609 9.15625 21.7656 9.31771 22.5156 9.64062C23.2708 9.96354 23.9349 10.4115 24.5078 10.9844C25.0807 11.5573 25.5286 12.2214 25.8516 12.9766C26.1745 13.7266 26.3359 14.5312 26.3359 15.3906C26.3359 16.1042 26.2214 16.7812 25.9922 17.4219C25.7682 18.0625 25.4557 18.6432 25.0547 19.1641L28.875 23.0078C28.9583 23.0911 29.0208 23.1875 29.0625 23.2969C29.1094 23.4062 29.1328 23.5234 29.1328 23.6484C29.1328 23.8203 29.0938 23.9766 29.0156 24.1172C28.9427 24.2578 28.8385 24.3672 28.7031 24.4453C28.5677 24.5286 28.4115 24.5703 28.2344 24.5703C28.1094 24.5703 27.9896 24.5469 27.875 24.5C27.7656 24.4583 27.6641 24.3932 27.5703 24.3047L23.7266 20.4531C23.2161 20.8177 22.6536 21.1042 22.0391 21.3125C21.4245 21.5208 20.7786 21.625 20.1016 21.625C19.2422 21.625 18.4349 21.4635 17.6797 21.1406C16.9297 20.8177 16.2682 20.3698 15.6953 19.7969C15.1224 19.224 14.6745 18.5625 14.3516 17.8125C14.0286 17.0573 13.8672 16.25 13.8672 15.3906ZM15.2031 15.3906C15.2031 16.0677 15.3281 16.7031 15.5781 17.2969C15.8333 17.8854 16.1849 18.4036 16.6328 18.8516C17.0859 19.2995 17.6068 19.651 18.1953 19.9062C18.7891 20.1615 19.4245 20.2891 20.1016 20.2891C20.7786 20.2891 21.4115 20.1615 22 19.9062C22.5938 19.651 23.1146 19.2995 23.5625 18.8516C24.0104 18.4036 24.362 17.8854 24.6172 17.2969C24.8724 16.7031 25 16.0677 25 15.3906C25 14.7135 24.8724 14.0807 24.6172 13.4922C24.362 12.8984 24.0104 12.3776 23.5625 11.9297C23.1146 11.4766 22.5938 11.125 22 10.875C21.4115 10.6198 20.7786 10.4922 20.1016 10.4922C19.4245 10.4922 18.7891 10.6198 18.1953 10.875C17.6068 11.125 17.0859 11.4766 16.6328 11.9297C16.1849 12.3776 15.8333 12.8984 15.5781 13.4922C15.3281 14.0807 15.2031 14.7135 15.2031 15.3906Z" fill="white"/>
</svg>
